<svg xmlns="http://www.w3.org/2000/svg" viewBox="0 0 256 256">
  <!-- Jablotron dark navy rounded square background (matches logo's dark color) -->
  <rect x="8" y="8" width="240" height="240" rx="48" fill="#1C1C2E" />

  <!-- Jablotron logo mark - fills the space -->
  <g transform="translate(4, 8) scale(0.121)">
    <path fill="white" d="M 998.528 398.234 C 1038.91 397.999 1070.74 398.756 1111.06 404.412 C 1274.41 426.485 1422.11 513.057 1521.18 644.793 C 1621.64 780.289 1663.88 950.276 1638.51 1117.04 C 1615.72 1279.22 1529.23 1425.64 1398.18 1523.89 C 1262.63 1623.88 1092.92 1665.95 926.361 1640.85 C 794.123 1621.95 671.508 1560.9 576.73 1466.76 C 552.842 1442.79 532.085 1417.09 511.919 1390.01 C 429.346 1273.38 388.71 1132.23 396.632 989.551 C 397.657 969.385 398.053 948.635 401.445 928.757 C 421.498 934.115 444.194 941.656 464.282 947.746 L 611.992 992.764 C 635.339 999.842 659.27 1007.64 682.739 1014.05 C 681.629 1096.2 704.534 1169.23 755.384 1234.16 C 810.613 1303.52 891.029 1348.23 979.093 1358.53 C 1068.32 1369.75 1158.33 1344.96 1229.23 1289.65 C 1301.02 1233.13 1344.05 1152.98 1354.78 1062.67 C 1365.46 974.664 1340.74 886.022 1286.07 816.236 C 1229.53 745.123 1146.87 699.612 1056.54 689.862 L 998.528 398.234 z"/>
    <path fill="#FECF00" d="M 861.717 253.201 L 865.521 252.725 C 865.984 253.07 866.447 253.415 866.91 253.761 C 874.576 288.892 889.532 364.256 895.949 395.139 L 985.834 828.63 L 1015.74 971.359 C 1019.69 990.967 1024.25 1009.96 1027.34 1029.77 C 988.48 1018.42 947.294 1003.75 908.361 991.687 C 798.772 957.722 689.69 920.727 580.064 887.108 C 513.882 864.986 446.531 844.683 380.301 822.779 C 347.717 812.003 301.646 800.097 270.885 787.247 C 285.542 731.891 323.625 652.907 353.615 604.681 C 447.542 452.677 591.337 338.006 760.432 280.262 C 794.592 268.566 826.678 261.351 861.717 253.201 z"/>
  </g>
</svg>
